<svg width="135" height="56" viewBox="0 0 135 56" fill="none" xmlns="http://www.w3.org/2000/svg">
<path d="M6.63104 13.2131C7.16064 12.2377 7.92495 11.4062 8.85655 10.7918L24.4912 0L8.47161 26.184C8.47161 26.184 7.07192 23.8459 6.52603 22.6628C5.84579 21.1753 5.50272 19.5589 5.52084 17.9265C5.53897 16.2942 5.91791 14.6855 6.63104 13.2131ZM0.178419 31.2756C0.354944 33.7796 1.07065 36.2174 2.27763 38.4257C3.4846 40.6342 5.15497 42.5621 7.1769 44.0806L24.4701 56C24.4701 56 13.6505 40.5871 4.52448 25.2502C3.60056 23.6298 2.97944 21.8583 2.69087 20.0203C2.56312 19.188 2.56312 18.3414 2.69087 17.5091C2.45292 17.945 1.99102 18.8374 1.99102 18.8374C1.06568 20.7028 0.435478 22.6976 0.122431 24.7521C-0.0577556 26.9238 -0.0390169 29.1072 0.178419 31.2756ZM44.2689 33.3509C43.7088 32.168 42.3232 29.8297 42.3232 29.8297L26.3317 56L41.9663 45.215C42.8979 44.6007 43.6622 43.7693 44.1919 42.7939C44.905 41.3214 45.2838 39.7127 45.3021 38.0805C45.3202 36.4482 44.9771 34.8315 44.2968 33.344L44.2689 33.3509ZM50.6164 24.7313C50.4398 22.2274 49.7241 19.7895 48.5173 17.5812C47.3102 15.3728 45.6398 13.4448 43.6179 11.9264L26.3526 0C26.3526 0 37.1653 15.413 46.2984 30.7498C47.2198 32.3707 47.8385 34.1422 48.125 35.9797C48.2527 36.812 48.2527 37.6586 48.125 38.4909C48.363 38.055 48.8248 37.1626 48.8248 37.1626C49.7502 35.2972 50.3804 33.3024 50.6933 31.2479C50.8759 29.0763 50.8595 26.893 50.6445 24.7244L50.6164 24.7313Z" fill="url(#paint0_linear_22_5)"/>
<path d="M73.3873 40.4066H63.4943V14.6649H73.0704C75.6287 14.6649 77.8702 15.2121 79.7948 16.3065C81.7194 17.4009 83.2333 18.9261 84.3364 20.882C85.4396 22.8147 85.9911 25.0501 85.9911 27.5881C85.9911 30.1029 85.4513 32.3267 84.3716 34.2593C83.3154 36.192 81.8368 37.7056 79.9356 38.8C78.058 39.8711 75.8752 40.4066 73.3873 40.4066ZM68.7752 17.0749V38.0665L66.2756 35.5517H72.8592C74.4552 35.5517 75.8165 35.2373 76.9431 34.6086C78.0697 33.9799 78.9264 33.0718 79.5132 31.8843C80.1234 30.6734 80.4285 29.2414 80.4285 27.5881C80.4285 25.9116 80.1117 24.4679 79.478 23.2571C78.8442 22.0463 77.9406 21.1265 76.7671 20.4978C75.5935 19.8458 74.197 19.5198 72.5775 19.5198H66.2756L68.7752 17.0749Z" fill="url(#paint1_linear_22_5)"/>
<path d="M91.4418 40.4066H85.9496L95.2441 14.6649H100.455L109.749 40.4066H104.151L102.215 34.7833H93.3781L91.4418 40.4066ZM97.1452 23.9207L94.9272 30.3824H100.701L98.483 23.9207C98.3422 23.5249 98.2014 23.1174 98.0606 22.6983C97.9432 22.2558 97.8611 21.8949 97.8141 21.6155C97.7672 21.8949 97.685 22.2442 97.5677 22.6633C97.4503 23.0825 97.3095 23.5016 97.1452 23.9207Z" fill="url(#paint2_linear_22_5)"/>
<path d="M135 27.5183C135 30.1262 134.46 32.4315 133.381 34.434C132.324 36.4365 130.834 38.0083 128.909 39.1492C127.008 40.2669 124.802 40.8258 122.291 40.8258C119.803 40.8258 117.608 40.2669 115.707 39.1492C113.806 38.0083 112.327 36.4482 111.271 34.4689C110.215 32.4664 109.687 30.1612 109.687 27.5532C109.687 24.922 110.215 22.6051 111.271 20.6026C112.351 18.6001 113.841 17.04 115.742 15.9223C117.643 14.7813 119.838 14.2108 122.326 14.2108C124.837 14.2108 127.043 14.7813 128.945 15.9223C130.846 17.04 132.324 18.6001 133.381 20.6026C134.46 22.5818 135 24.8871 135 27.5183ZM129.437 27.5183C129.437 25.7952 129.144 24.3282 128.557 23.1174C127.994 21.8833 127.184 20.9402 126.128 20.2882C125.095 19.613 123.84 19.2753 122.361 19.2753C120.882 19.2753 119.615 19.613 118.559 20.2882C117.502 20.9402 116.681 21.8833 116.094 23.1174C115.531 24.3282 115.249 25.7952 115.249 27.5183C115.249 29.2181 115.531 30.6967 116.094 31.9541C116.681 33.1882 117.502 34.1429 118.559 34.8182C119.615 35.4702 120.882 35.7962 122.361 35.7962C123.84 35.7962 125.095 35.4585 126.128 34.7833C127.184 34.108 127.994 33.1533 128.557 31.9192C129.144 30.6618 129.437 29.1948 129.437 27.5183Z" fill="url(#paint3_linear_22_5)"/>
<defs>
<linearGradient id="paint0_linear_22_5" x1="125.145" y1="74.256" x2="90.9544" y2="-36.3503" gradientUnits="userSpaceOnUse">
<stop stop-color="#DE82FF"/>
<stop offset="1" stop-color="#7F6AFF"/>
</linearGradient>
<linearGradient id="paint1_linear_22_5" x1="125.145" y1="74.256" x2="90.9544" y2="-36.3503" gradientUnits="userSpaceOnUse">
<stop stop-color="#DE82FF"/>
<stop offset="1" stop-color="#7F6AFF"/>
</linearGradient>
<linearGradient id="paint2_linear_22_5" x1="125.145" y1="74.256" x2="90.9544" y2="-36.3503" gradientUnits="userSpaceOnUse">
<stop stop-color="#DE82FF"/>
<stop offset="1" stop-color="#7F6AFF"/>
</linearGradient>
<linearGradient id="paint3_linear_22_5" x1="125.145" y1="74.256" x2="90.9544" y2="-36.3503" gradientUnits="userSpaceOnUse">
<stop stop-color="#DE82FF"/>
<stop offset="1" stop-color="#7F6AFF"/>
</linearGradient>
</defs>
</svg>
